<svg xmlns="http://www.w3.org/2000/svg" viewBox="0 0 512 512">
  <defs>
    <linearGradient id="g" x1="0" y1="0" x2="1" y2="1">
      <stop offset="0" stop-color="#0e7490"/>
      <stop offset="1" stop-color="#0891b2"/>
    </linearGradient>
  </defs>
  <rect width="512" height="512" rx="96" fill="url(#g)"/>
  <g fill="none" stroke="#e0f7fb" stroke-width="22" stroke-linecap="round">
    <path d="M150 352 L362 352" />
    <path d="M170 352 L170 250 C170 200 200 172 256 172 C312 172 342 200 342 250 L342 352" />
    <path d="M200 352 L200 258" />
    <path d="M312 352 L312 258" />
    <path d="M256 232 L256 300" />
    <path d="M232 244 L256 232 L280 244" />
  </g>
  <path d="M136 118 Q256 88 376 118" fill="none" stroke="#fde68a" stroke-width="16" stroke-linecap="round"/>
  <circle cx="136" cy="118" r="12" fill="#fde68a"/>
  <circle cx="256" cy="108" r="12" fill="#fde68a"/>
  <circle cx="376" cy="118" r="12" fill="#fde68a"/>
</svg>
